<svg xmlns="http://www.w3.org/2000/svg" width="26.571" height="30.809" viewBox="0 0 26.571 30.809">
  <g id="Group_73045" data-name="Group 73045" transform="translate(1.422 1.421)">
    <path id="Path_11262" data-name="Path 11262" d="M1.172,16.763A1.041,1.041,0,0,1,.015,15.606l2.3-11.933A1.844,1.844,0,0,1,3.673,2.317L15.606.015a1.041,1.041,0,0,1,1.157,1.157" transform="translate(11.864 27.966) rotate(-135)" fill="none" stroke="#c604c6" stroke-linecap="round" stroke-linejoin="round" stroke-miterlimit="10" stroke-width="2"/>
    <path id="Path_11261" data-name="Path 11261" d="M12.872,14.227.938,16.53a.728.728,0,0,1-.917-.917l2.3-11.933A1.844,1.844,0,0,1,3.679,2.324L15.613.021a.728.728,0,0,1,.917.917l-2.3,11.933A1.848,1.848,0,0,1,12.872,14.227Z" transform="translate(11.864 0) rotate(45)" fill="none" stroke="#c604c6" stroke-linecap="round" stroke-linejoin="round" stroke-miterlimit="10" stroke-width="2"/>
  </g>
</svg>
