<svg xmlns="http://www.w3.org/2000/svg" width="26.571" height="43.535" viewBox="0 0 26.571 43.535">
  <g id="Group_73051" data-name="Group 73051" transform="translate(1.422 1.421)">
    <path id="Path_11272" data-name="Path 11272" d="M1.172,16.763A1.041,1.041,0,0,1,.015,15.606l2.3-11.933A1.844,1.844,0,0,1,3.673,2.317L15.606.015a1.041,1.041,0,0,1,1.157,1.157" transform="translate(11.864 27.966) rotate(-135)" fill="none" stroke="#810081" stroke-linecap="round" stroke-linejoin="round" stroke-miterlimit="10" stroke-width="2"/>
    <path id="Path_11273" data-name="Path 11273" d="M1.172,16.763A1.041,1.041,0,0,1,.015,15.606l2.3-11.933A1.844,1.844,0,0,1,3.673,2.317L15.606.015a1.041,1.041,0,0,1,1.157,1.157" transform="translate(11.864 32.535) rotate(-135)" fill="none" stroke="#810081" stroke-linecap="round" stroke-linejoin="round" stroke-miterlimit="10" stroke-width="2"/>
    <path id="Path_11274" data-name="Path 11274" d="M1.172,16.763A1.041,1.041,0,0,1,.015,15.606l2.3-11.933A1.844,1.844,0,0,1,3.673,2.317L15.606.015a1.041,1.041,0,0,1,1.157,1.157" transform="translate(11.864 36.738) rotate(-135)" fill="none" stroke="#810081" stroke-linecap="round" stroke-linejoin="round" stroke-miterlimit="10" stroke-width="2"/>
    <path id="Path_11568" data-name="Path 11568" d="M1.172,16.763A1.041,1.041,0,0,1,.015,15.606l2.3-11.933A1.844,1.844,0,0,1,3.673,2.317L15.606.015a1.041,1.041,0,0,1,1.157,1.157" transform="translate(11.864 40.692) rotate(-135)" fill="none" stroke="#810081" stroke-linecap="round" stroke-linejoin="round" stroke-miterlimit="10" stroke-width="2"/>
    <path id="Path_11271" data-name="Path 11271" d="M12.872,14.227.938,16.53a.728.728,0,0,1-.917-.917l2.3-11.933A1.844,1.844,0,0,1,3.679,2.324L15.613.021a.728.728,0,0,1,.917.917l-2.3,11.933A1.848,1.848,0,0,1,12.872,14.227Z" transform="translate(11.864 0) rotate(45)" fill="none" stroke="#810081" stroke-linecap="round" stroke-linejoin="round" stroke-miterlimit="10" stroke-width="2"/>
  </g>
</svg>
