<svg id="Group_73023" data-name="Group 73023" xmlns="http://www.w3.org/2000/svg" width="61.961" height="59.635" viewBox="0 0 61.961 59.635">
  <path id="Path_11505" data-name="Path 11505" d="M140.32,162.169a22.429,22.429,0,0,0,15.716-17.258.781.781,0,0,0-.339-.8,22.33,22.33,0,0,0-4.487-2.258c-.122.51-.258,1.016-.411,1.517a20.767,20.767,0,0,1,3.6,1.764,20.877,20.877,0,0,1-14.521,15.541,21.812,21.812,0,0,1-10.155.148,30.133,30.133,0,0,1-4.215.306c-.122,0-.238-.01-.359-.011a27.977,27.977,0,0,0,9.66,1.783A19.566,19.566,0,0,0,140.32,162.169Z" transform="translate(-94.089 -103.263)" fill="#fff"/>
  <path id="Path_11506" data-name="Path 11506" d="M146,121.035a.781.781,0,0,0-.613-.618A23.66,23.66,0,0,0,126,125.089a24.4,24.4,0,0,0-8.645,23.085.779.779,0,0,0,.649.628,23.4,23.4,0,0,0,3.535.258c5.723,0,11.945-1.875,15.815-4.935A23.69,23.69,0,0,0,146,121.035ZM136.389,142.9c-4.076,3.223-10.965,5.029-16.846,4.507,4.785-12.371,18.274-20.161,18.412-20.24a.26.26,0,0,0-.218-.47c-1.229.448-11.765,4.632-19.157,18.461a22.881,22.881,0,0,1,8.392-18.843,22.108,22.108,0,0,1,17.589-4.465A22.135,22.135,0,0,1,136.389,142.9Z" transform="translate(-90.173 -92.761)" fill="#fff"/>
  <path id="Path_11507" data-name="Path 11507" d="M93.58,67.711h0a28.1,28.1,0,0,0-2.333,56.1,2.273,2.273,0,0,1-.119-.4c-.094-.5-.169-1.007-.23-1.514-2.757-.948-5.332-3.347-7.435-6.99a30.087,30.087,0,0,1-2.363-5.256H92.482a26.571,26.571,0,0,1,1.878-3.906V96.6h9.277a25.092,25.092,0,0,1,3.285-1.561H94.361V83.55h12.2a43.355,43.355,0,0,1,1.658,11.026c.511-.167,1.026-.321,1.547-.454a45.051,45.051,0,0,0-1.583-10.572h8.93a26.328,26.328,0,0,1,2.916,10.114c.327.053.654.106.977.172a2.315,2.315,0,0,1,.623.223A28.1,28.1,0,0,0,93.58,67.711Zm-6.528,2.376c-3.211,2.449-5.876,6.647-7.593,11.9H70.933A26.641,26.641,0,0,1,87.053,70.087Zm-17,13.463h8.93A45.394,45.394,0,0,0,77.37,95.035H67.057A26.353,26.353,0,0,1,70.053,83.55Zm-3,13.046H77.37a45.39,45.39,0,0,0,1.615,11.494H70.057A26.358,26.358,0,0,1,67.057,96.6Zm20,24.948a26.639,26.639,0,0,1-16.114-11.892h8.524C81.18,114.9,83.843,119.1,87.053,121.544ZM92.8,108.09H80.606A43.554,43.554,0,0,1,78.931,96.6H92.8Zm0-13.056H78.931A43.533,43.533,0,0,1,80.6,83.55H92.8Zm0-13.046H81.1a30.119,30.119,0,0,1,2.367-5.266c2.58-4.47,5.87-7.069,9.337-7.409Zm1.561,0V69.314c3.467.341,6.757,2.94,9.337,7.409a30.118,30.118,0,0,1,2.367,5.266Zm13.34,0c-1.718-5.254-4.382-9.453-7.593-11.9a26.639,26.639,0,0,1,16.12,11.9Z" transform="translate(-65.476 -67.711)" fill="#fff"/>
</svg>
