<svg id="Shared-Illustration-IIDelivery" xmlns="http://www.w3.org/2000/svg" width="144" height="144" viewBox="0 0 144 144">
  <g id="Group_73078" data-name="Group 73078" transform="translate(437.987 -0.04)">
    <g id="Color">
      <rect id="Rectangle_146062" data-name="Rectangle 146062" width="144" height="144" transform="translate(-437.987 0.04)" fill="none"/>
    </g>
    <g id="Icon">
      <g id="Group_73077" data-name="Group 73077">
        <path id="Path_11584" data-name="Path 11584" d="M-385.231,101.264a8.583,8.583,0,0,1-.906,1.74,8.335,8.335,0,0,1-.373.808,8.438,8.438,0,0,0,1.36-2.531Z" fill="none"/>
        <path id="Path_11585" data-name="Path 11585" d="M-328.608,103.177a8.674,8.674,0,0,0,.436-.762c-.114.2-.236.4-.365.589C-328.56,103.061-328.583,103.119-328.608,103.177Z" fill="#f2fafc"/>
        <path id="Path_11586" data-name="Path 11586" d="M-413.066,60.661l.361-2.99a1.5,1.5,0,0,1,1.669-1.31,1.5,1.5,0,0,1,.793.348l.432-4.1h-8.763a1.5,1.5,0,0,1-1.5-1.5,1.5,1.5,0,0,1,1.5-1.5h6.9l.606-5.018a7.071,7.071,0,0,1,7.024-6.03l17.964.01-32.421-6.738c-3.859-.8-6.988,1.354-6.988,4.815V60.689a1.544,1.544,0,0,1,.291-.028Z" fill="#f2fafc"/>
        <path id="Path_11587" data-name="Path 11587" d="M-405.711,97.008l1.186.247c.01-.083.021-.165.032-.246Z" fill="#f2fafc"/>
        <path id="Path_11588" data-name="Path 11588" d="M-316.931,99.014a1.5,1.5,0,0,1-1.5-1.5,1.487,1.487,0,0,1,.085-.5l-6.04-.028a11.545,11.545,0,0,1,.116,1.631,11.456,11.456,0,0,1-11.443,11.443A11.456,11.456,0,0,1-347.156,98.62a11.5,11.5,0,0,1,.183-2.046,3.624,3.624,0,0,1-1.724.444h-5.221a1.5,1.5,0,0,1,.15.655,1.5,1.5,0,0,1-1.5,1.5h-19.886a1.5,1.5,0,0,1-1.5-1.5,1.485,1.485,0,0,1,.152-.659h-5.331a11.513,11.513,0,0,1,.113,1.607,11.415,11.415,0,0,1-.478,3.274l68.717,14.28c3.859.8,6.987-1.353,6.987-4.815V61.381a6.066,6.066,0,0,0-.116-1.169l-3.959,32.831A6.507,6.507,0,0,1-316.931,99.014Z" fill="#f2fafc"/>
        <path id="Path_11589" data-name="Path 11589" d="M-385.15,101.281a8.321,8.321,0,0,0,.383-1.771,8.5,8.5,0,0,1-.464,1.754Z" fill="#f2fafc"/>
        <path id="Path_11590" data-name="Path 11590" d="M-339.476,56.408a2.471,2.471,0,0,1-.538,1.544l-.925,7.633a2.486,2.486,0,0,1,1.463,2.266,2.487,2.487,0,0,1-2.035,2.446l-1.443,11.909a1.5,1.5,0,0,1-.944,1.216l-.872,8.212a11.441,11.441,0,0,1,8.008-4.409l.463-3.736a1.5,1.5,0,0,1-1.211-1.652l3.413-28.461a6.68,6.68,0,0,1,1.675-3.651l-6.432-1.336-.847,6.984A2.489,2.489,0,0,1-339.476,56.408Z" fill="#f2fafc"/>
        <path id="Path_11591" data-name="Path 11591" d="M-416.691,92.611l1.434-11.889a1.493,1.493,0,0,1,1.669-1.31,1.491,1.491,0,0,1,.9.452l.548-5.155h-10.856a1.5,1.5,0,0,1-1.5-1.5,1.5,1.5,0,0,1,1.5-1.5h8.65l.348-2.882a1.5,1.5,0,0,1,1.669-1.31,1.5,1.5,0,0,1,.9.448l.453-4.3H-425.2a1.543,1.543,0,0,1-.291-.028v23c0,3.461,3.129,6.917,6.988,7.719l1.949.4A5.824,5.824,0,0,1-416.691,92.611Z" fill="#f2fafc"/>
        <path id="Path_11592" data-name="Path 11592" d="M-364.132,24.51a2.488,2.488,0,0,0,2.488-2.488,2.488,2.488,0,0,0-2.488-2.488,2.488,2.488,0,0,0-2.488,2.488A2.488,2.488,0,0,0-364.132,24.51Z" fill="#f1f2f2"/>
        <path id="Path_11593" data-name="Path 11593" d="M-353.048,24.537a2.488,2.488,0,0,0,2.488-2.487,2.488,2.488,0,0,0-2.488-2.488,2.488,2.488,0,0,0-2.488,2.488A2.488,2.488,0,0,0-353.048,24.537Z" fill="#f1f2f2"/>
        <path id="Path_11594" data-name="Path 11594" d="M-341.964,24.565a2.488,2.488,0,0,0,2.488-2.488,2.488,2.488,0,0,0-2.488-2.488,2.487,2.487,0,0,0-2.487,2.488A2.487,2.487,0,0,0-341.964,24.565Z" fill="#f1f2f2"/>
        <circle id="Ellipse_754" data-name="Ellipse 754" cx="2.488" cy="2.488" r="2.488" transform="translate(-333.367 19.617)" fill="#f1f2f2"/>
        <path id="Path_11595" data-name="Path 11595" d="M-319.8,24.62a2.488,2.488,0,0,0,2.488-2.488,2.488,2.488,0,0,0-2.488-2.487,2.488,2.488,0,0,0-2.488,2.487A2.488,2.488,0,0,0-319.8,24.62Z" fill="#f1f2f2"/>
        <path id="Path_11596" data-name="Path 11596" d="M-364.132,35.953a2.488,2.488,0,0,0,2.488-2.488,2.488,2.488,0,0,0-2.488-2.487,2.488,2.488,0,0,0-2.488,2.487A2.488,2.488,0,0,0-364.132,35.953Z" fill="#f1f2f2"/>
        <circle id="Ellipse_755" data-name="Ellipse 755" cx="2.488" cy="2.488" r="2.488" transform="translate(-355.536 31.005)" fill="#f1f2f2"/>
        <path id="Path_11597" data-name="Path 11597" d="M-341.964,36.008a2.487,2.487,0,0,0,2.488-2.487,2.488,2.488,0,0,0-2.488-2.488,2.487,2.487,0,0,0-2.487,2.488A2.486,2.486,0,0,0-341.964,36.008Z" fill="#f1f2f2"/>
        <path id="Path_11598" data-name="Path 11598" d="M-330.879,36.036a2.487,2.487,0,0,0,2.487-2.488,2.486,2.486,0,0,0-2.487-2.487,2.487,2.487,0,0,0-2.488,2.487A2.488,2.488,0,0,0-330.879,36.036Z" fill="#f1f2f2"/>
        <path id="Path_11599" data-name="Path 11599" d="M-319.8,36.064a2.488,2.488,0,0,0,2.488-2.488,2.488,2.488,0,0,0-2.488-2.488,2.488,2.488,0,0,0-2.488,2.488A2.488,2.488,0,0,0-319.8,36.064Z" fill="#f1f2f2"/>
        <circle id="Ellipse_756" data-name="Ellipse 756" cx="2.488" cy="2.488" r="2.488" transform="translate(-333.367 42.504)" fill="#f1f2f2"/>
        <path id="Path_11600" data-name="Path 11600" d="M-317.307,45.02a2.488,2.488,0,0,0-2.488-2.488,2.488,2.488,0,0,0-2.488,2.488,2.488,2.488,0,0,0,1.775,2.383h1.426A2.488,2.488,0,0,0-317.307,45.02Z" fill="#f1f2f2"/>
        <path id="Path_11601" data-name="Path 11601" d="M-339.7,55.373l-.313,2.579a2.471,2.471,0,0,0,.538-1.544A2.489,2.489,0,0,0-339.7,55.373Z" fill="#f1f2f2"/>
        <path id="Path_11602" data-name="Path 11602" d="M-339.476,67.851a2.486,2.486,0,0,0-1.463-2.266l-.572,4.712A2.487,2.487,0,0,0-339.476,67.851Z" fill="#f1f2f2"/>
        <path id="Path_11603" data-name="Path 11603" d="M-411.071,117.776a2.434,2.434,0,0,0-2.433,2.433,2.433,2.433,0,0,0,2.433,2.433,2.433,2.433,0,0,0,2.433-2.433A2.433,2.433,0,0,0-411.071,117.776Z" fill="#f1f2f2"/>
        <path id="Path_11604" data-name="Path 11604" d="M-400.231,117.8a2.432,2.432,0,0,0-2.433,2.432,2.433,2.433,0,0,0,2.433,2.433,2.432,2.432,0,0,0,2.432-2.433A2.432,2.432,0,0,0-400.231,117.8Z" fill="#f1f2f2"/>
        <circle id="Ellipse_757" data-name="Ellipse 757" cx="2.433" cy="2.433" r="2.433" transform="translate(-391.825 117.83)" fill="#f1f2f2"/>
        <path id="Path_11605" data-name="Path 11605" d="M-343.9,83.422a1.478,1.478,0,0,1-.544.1,1.6,1.6,0,0,1-.182-.011,1.5,1.5,0,0,1-1.309-1.669l4.513-37.222a2.6,2.6,0,0,0-.615-2.074,3,3,0,0,0-2.3-.953l-59.719-.032a4.14,4.14,0,0,0-4.045,3.389l-.019.163a3.475,3.475,0,0,1,2.331-.933l58.474.011a2.776,2.776,0,0,1,2.811,3.142l-4.9,46.541a3.575,3.575,0,0,1-3.442,3.14h4.141a3.624,3.624,0,0,0,1.724-.444,11.406,11.406,0,0,1,2.2-4.94Z" fill="#fff"/>
        <path id="Path_11606" data-name="Path 11606" d="M-412.685,79.864l0,0,.543-5.16h0Z" fill="#fff"/>
        <path id="Path_11607" data-name="Path 11607" d="M-323.144,52.1a1.376,1.376,0,0,1,1.355,1.551l-2,15.68a3.471,3.471,0,0,0,3.461,4.287l6.4.144a1.376,1.376,0,0,1,1.353,1.58l-2.331,18.362a2.974,2.974,0,0,1-1.484,2.265,3.662,3.662,0,0,0,2.846-3.288l2.431-20.167h-8.4a3.66,3.66,0,0,1-2.748-1.206,3.56,3.56,0,0,1-.859-2.828l2.378-18.079H-327.3a4.026,4.026,0,0,0-3.441,2.141,3.39,3.39,0,0,1,1.765-.484Z" fill="#fff"/>
        <path id="Path_11608" data-name="Path 11608" d="M-324.458,96.547c.026.146.05.294.072.442l6.04.028a1.5,1.5,0,0,1,.4-.608h-.014Z" fill="#fff"/>
        <path id="Path_11609" data-name="Path 11609" d="M-336.654,87.216a1.386,1.386,0,0,1,0-.412l.467-3.3h-.008c-.034,0-.067-.01-.1-.016l-.463,3.736Z" fill="#fff"/>
        <path id="Path_11610" data-name="Path 11610" d="M-308.808,53.375a2.626,2.626,0,0,0-.607-2.093,2.739,2.739,0,0,0-2.09-.879h-6.257a1.452,1.452,0,0,1-.005.348l-2.382,18.106a.588.588,0,0,0,.128.464.658.658,0,0,0,.5.195h8.764Z" fill="#fff"/>
        <path id="Path_11611" data-name="Path 11611" d="M-336.654,87.216c.311-.026.624-.039.941-.039a11.463,11.463,0,0,1,11.255,9.37l6.5-.138h.014a1.494,1.494,0,0,1,1.013-.395,3.35,3.35,0,0,0,.538-.043,2.974,2.974,0,0,0,1.484-2.265l2.331-18.362a1.376,1.376,0,0,0-1.353-1.58l-6.4-.144a3.471,3.471,0,0,1-3.461-4.287l2-15.68a1.376,1.376,0,0,0-1.355-1.551l-5.831-.042a3.39,3.39,0,0,0-1.765.484,3.424,3.424,0,0,0-.378,1.19l-3.413,28.46a1.5,1.5,0,0,1-1.66,1.312l-.467,3.3A1.386,1.386,0,0,0-336.654,87.216Z" fill="#d0ae86"/>
        <path id="Path_11612" data-name="Path 11612" d="M-335.713,90.177a8.447,8.447,0,0,0-7.131,3.926,8.541,8.541,0,0,1,6.356-2.827,8.559,8.559,0,0,1,8.558,8.558,8.541,8.541,0,0,1-.607,3.17c.129-.191.251-.388.365-.589a8.391,8.391,0,0,0,.9-3.795A8.453,8.453,0,0,0-335.713,90.177Z" fill="#fff"/>
        <path id="Path_11613" data-name="Path 11613" d="M-327.93,99.834a8.559,8.559,0,0,0-8.558-8.558,8.541,8.541,0,0,0-6.356,2.827,8.392,8.392,0,0,0-1.312,4.517,8.453,8.453,0,0,0,8.443,8.443,8.444,8.444,0,0,0,7.105-3.886c.025-.058.048-.116.071-.173A8.541,8.541,0,0,0-327.93,99.834Z" fill="#bcbec0"/>
        <path id="Path_11614" data-name="Path 11614" d="M-393.163,87.177a11.46,11.46,0,0,1,11.33,9.836h5.331a1.5,1.5,0,0,1,1.348-.841h19.886a1.5,1.5,0,0,1,1.35.845h1.08a3.575,3.575,0,0,0,3.442-3.14l4.9-46.541a2.776,2.776,0,0,0-2.811-3.142l-58.474-.011a3.475,3.475,0,0,0-2.331.933l-.543,4.5h18.808a1.5,1.5,0,0,1,1.5,1.5,1.5,1.5,0,0,1-1.5,1.5h-19.962l-.432,4.1a1.5,1.5,0,0,1,.516,1.321l-.317,2.631h26.824a1.5,1.5,0,0,1,1.5,1.5,1.5,1.5,0,0,1-1.5,1.5h-27.754l-.453,4.3a1.494,1.494,0,0,1,.41,1.221l-.3,2.523h21.472a1.5,1.5,0,0,1,1.5,1.5,1.5,1.5,0,0,1-1.5,1.5h-22.288l-.543,5.159a1.5,1.5,0,0,1,.4,1.213l-1.433,11.89a2.609,2.609,0,0,0,.615,2.076,3,3,0,0,0,2.3.953,1.5,1.5,0,0,1,1.417,1.008h4.891A11.461,11.461,0,0,1-393.163,87.177Z" fill="#c9efff"/>
        <path id="Path_11615" data-name="Path 11615" d="M-385.53,99.834a8.541,8.541,0,0,1-.607,3.17,8.583,8.583,0,0,0,.906-1.74,8.5,8.5,0,0,0,.464-1.754,8.456,8.456,0,0,0,.047-.89,8.453,8.453,0,0,0-8.443-8.443,8.435,8.435,0,0,0-6.779,3.415,8.526,8.526,0,0,1,5.854-2.316A8.559,8.559,0,0,1-385.53,99.834Z" fill="#fff"/>
        <path id="Path_11616" data-name="Path 11616" d="M-385.53,99.834a8.559,8.559,0,0,0-8.558-8.558,8.526,8.526,0,0,0-5.854,2.316,8.4,8.4,0,0,0-1.665,5.028,8.453,8.453,0,0,0,8.444,8.443,8.432,8.432,0,0,0,6.653-3.251,8.335,8.335,0,0,0,.373-.808A8.541,8.541,0,0,0-385.53,99.834Z" fill="#bcbec0"/>
        <path id="Path_11617" data-name="Path 11617" d="M-410.8,96a3,3,0,0,1-2.3-.953,2.609,2.609,0,0,1-.615-2.076l1.433-11.89a1.5,1.5,0,0,0-.4-1.213l-.005,0a1.491,1.491,0,0,0-.9-.452,1.493,1.493,0,0,0-1.669,1.31l-1.434,11.889a5.824,5.824,0,0,0,.134,2.143,5.48,5.48,0,0,0,1.216,2.283A6.038,6.038,0,0,0-410.8,99a1.5,1.5,0,0,0,1.5-1.5,1.507,1.507,0,0,0-.083-.492A1.5,1.5,0,0,0-410.8,96Z" fill="#4e4e4e"/>
        <path id="Path_11618" data-name="Path 11618" d="M-307.171,49.292a5.693,5.693,0,0,0-4.334-1.889H-327.3a6.919,6.919,0,0,0-5.123,2.322,6.68,6.68,0,0,0-1.675,3.651l-3.413,28.461a1.5,1.5,0,0,0,1.211,1.652c.033.006.066.012.1.016h.008a1.5,1.5,0,0,0,1.66-1.312l3.413-28.46a3.424,3.424,0,0,1,.378-1.19A4.026,4.026,0,0,1-327.3,50.4h6.552l-2.378,18.079a3.56,3.56,0,0,0,.859,2.828,3.66,3.66,0,0,0,2.748,1.206h8.4l-2.431,20.167a3.662,3.662,0,0,1-2.846,3.288,3.35,3.35,0,0,1-.538.043,1.494,1.494,0,0,0-1.013.395,1.5,1.5,0,0,0-.4.608,1.487,1.487,0,0,0-.085.5,1.5,1.5,0,0,0,1.5,1.5,6.507,6.507,0,0,0,6.362-5.971l3.959-32.831.781-6.478A5.589,5.589,0,0,0-307.171,49.292Zm-12.347,20.224a.658.658,0,0,1-.5-.195.588.588,0,0,1-.128-.464l2.382-18.106a1.452,1.452,0,0,0,.005-.348h6.257a2.739,2.739,0,0,1,2.09.879,2.626,2.626,0,0,1,.607,2.093l-1.946,16.141Z" fill="#4e4e4e"/>
        <path id="Path_11619" data-name="Path 11619" d="M-381.833,97.013a11.46,11.46,0,0,0-11.33-9.836,11.461,11.461,0,0,0-11.33,9.832c-.011.081-.022.163-.032.246a11.593,11.593,0,0,0-.082,1.365,11.456,11.456,0,0,0,11.444,11.443,11.463,11.463,0,0,0,10.965-8.169,11.415,11.415,0,0,0,.478-3.274A11.513,11.513,0,0,0-381.833,97.013Zm-11.33,10.05a8.453,8.453,0,0,1-8.444-8.443,8.4,8.4,0,0,1,1.665-5.028,8.435,8.435,0,0,1,6.779-3.415,8.453,8.453,0,0,1,8.443,8.443,8.456,8.456,0,0,1-.047.89,8.321,8.321,0,0,1-.383,1.771,8.438,8.438,0,0,1-1.36,2.531A8.432,8.432,0,0,1-393.163,107.063Z" fill="#4e4e4e"/>
        <path id="Path_11620" data-name="Path 11620" d="M-335.713,87.177c-.317,0-.63.013-.941.039l-.108.009a11.441,11.441,0,0,0-8.008,4.409,11.406,11.406,0,0,0-2.2,4.94,11.5,11.5,0,0,0-.183,2.046,11.456,11.456,0,0,0,11.443,11.443A11.456,11.456,0,0,0-324.27,98.62a11.545,11.545,0,0,0-.116-1.631c-.022-.148-.046-.3-.072-.442A11.463,11.463,0,0,0-335.713,87.177Zm8.443,11.443a8.391,8.391,0,0,1-.9,3.795,8.674,8.674,0,0,1-.436.762,8.444,8.444,0,0,1-7.105,3.886,8.453,8.453,0,0,1-8.443-8.443,8.392,8.392,0,0,1,1.312-4.517,8.447,8.447,0,0,1,7.131-3.926A8.453,8.453,0,0,1-327.27,98.62Z" fill="#4e4e4e"/>
        <path id="Path_11621" data-name="Path 11621" d="M-355.268,96.173h-19.886a1.5,1.5,0,0,0-1.348.841,1.485,1.485,0,0,0-.152.659,1.5,1.5,0,0,0,1.5,1.5h19.886a1.5,1.5,0,0,0,1.5-1.5,1.5,1.5,0,0,0-.15-.655A1.5,1.5,0,0,0-355.268,96.173Z" fill="#4e4e4e"/>
        <path id="Path_11622" data-name="Path 11622" d="M-411.073,44.594l-.606,5.018h-6.9a1.5,1.5,0,0,0-1.5,1.5,1.5,1.5,0,0,0,1.5,1.5h28.725a1.5,1.5,0,0,0,1.5-1.5,1.5,1.5,0,0,0-1.5-1.5h-18.808l.543-4.5.019-.163a4.14,4.14,0,0,1,4.045-3.389l59.719.032a3,3,0,0,1,2.3.953,2.6,2.6,0,0,1,.615,2.074l-4.513,37.222a1.5,1.5,0,0,0,1.309,1.669,1.6,1.6,0,0,0,.182.011,1.478,1.478,0,0,0,.544-.1,1.5,1.5,0,0,0,.944-1.216l1.443-11.909.572-4.712.925-7.633.313-2.579.847-6.984.412-3.406a5.571,5.571,0,0,0-1.348-4.425,6.042,6.042,0,0,0-4.54-1.962l-41.755-.022-17.964-.01A7.071,7.071,0,0,0-411.073,44.594Z" fill="#4e4e4e"/>
        <path id="Path_11623" data-name="Path 11623" d="M-383.22,63.661a1.5,1.5,0,0,0,1.5-1.5,1.5,1.5,0,0,0-1.5-1.5h-26.824l.317-2.631a1.5,1.5,0,0,0-.516-1.321,1.5,1.5,0,0,0-.793-.348,1.5,1.5,0,0,0-1.669,1.31l-.361,2.99H-425.2a1.544,1.544,0,0,0-.291.028,1.5,1.5,0,0,0-1.209,1.472,1.5,1.5,0,0,0,1.209,1.472,1.543,1.543,0,0,0,.291.028Z" fill="#4e4e4e"/>
        <path id="Path_11624" data-name="Path 11624" d="M-412.326,67.517a1.5,1.5,0,0,0-1.669,1.31l-.348,2.882h-8.65a1.5,1.5,0,0,0-1.5,1.5,1.5,1.5,0,0,0,1.5,1.5h33.144a1.5,1.5,0,0,0,1.5-1.5,1.5,1.5,0,0,0-1.5-1.5h-21.472l.3-2.523a1.494,1.494,0,0,0-.41-1.221A1.5,1.5,0,0,0-412.326,67.517Z" fill="#4e4e4e"/>
      </g>
    </g>
  </g>
</svg>
