<svg xmlns="http://www.w3.org/2000/svg" width="144" height="144" viewBox="0 0 144 144">
  <g id="Shared-Illustration-IIPhone" transform="translate(0)">
    <g id="Color" transform="translate(218.993 -0.085)">
      <rect id="Rectangle_146067" data-name="Rectangle 146067" width="144" height="144" transform="translate(-218.993 0.085)" fill="none"/>
    </g>
    <g id="Icon" transform="translate(218.993 -0.085)">
      <g id="Group_73201" data-name="Group 73201" transform="translate(224.158 -179.102)">
        <g id="Shape">
          <path id="Path_11964" data-name="Path 11964" d="M-318.2,302.379l-104.965-21.813c-3.857-.8-6.984-4.256-6.984-7.715V222.9c0-3.459,3.127-5.614,6.984-4.812L-318.2,239.9c3.858.8,6.984,4.255,6.984,7.715v49.95C-311.218,301.025-314.344,303.18-318.2,302.379Z" fill="#f1f9fa"/>
        </g>
        <g id="Dots">
          <g id="Group_73198" data-name="Group 73198">
            <g id="Group_73196" data-name="Group 73196" style="mix-blend-mode: multiply;isolation: isolate">
              <path id="Path_11965" data-name="Path 11965" d="M-409.859,259.018a2.289,2.289,0,0,0-2.3,2.275,2.287,2.287,0,0,0,2.274,2.3,2.288,2.288,0,0,0,2.3-2.274A2.288,2.288,0,0,0-409.859,259.018Z" fill="#f1f1f1"/>
              <path id="Path_11966" data-name="Path 11966" d="M-409.925,269.545a2.288,2.288,0,0,0-2.3,2.274,2.288,2.288,0,0,0,2.274,2.3,2.289,2.289,0,0,0,2.3-2.275A2.288,2.288,0,0,0-409.925,269.545Z" fill="#f1f1f1"/>
              <path id="Path_11967" data-name="Path 11967" d="M-409.99,280.071a2.289,2.289,0,0,0-2.3,2.275,2.288,2.288,0,0,0,2.274,2.3,2.289,2.289,0,0,0,2.3-2.274A2.288,2.288,0,0,0-409.99,280.071Z" fill="#f1f1f1"/>
              <path id="Path_11968" data-name="Path 11968" d="M-410.056,290.6a2.289,2.289,0,0,0-2.3,2.275,2.288,2.288,0,0,0,2.274,2.3,2.289,2.289,0,0,0,2.3-2.275A2.288,2.288,0,0,0-410.056,290.6Z" fill="#f1f1f1"/>
              <path id="Path_11969" data-name="Path 11969" d="M-410.121,301.124a2.288,2.288,0,0,0-2.3,2.274,2.288,2.288,0,0,0,2.274,2.3,2.289,2.289,0,0,0,2.3-2.275A2.288,2.288,0,0,0-410.121,301.124Z" fill="#f1f1f1"/>
            </g>
            <g id="Group_73197" data-name="Group 73197" style="mix-blend-mode: multiply;isolation: isolate">
              <path id="Path_11970" data-name="Path 11970" d="M-314.247,231.061a2.288,2.288,0,0,0,.02-3.236,2.288,2.288,0,0,0-3.236-.021,2.288,2.288,0,0,0-.02,3.237A2.288,2.288,0,0,0-314.247,231.061Z" fill="#f1f1f1"/>
              <path id="Path_11971" data-name="Path 11971" d="M-321.52,238.207a2.288,2.288,0,0,0,.021-3.236,2.29,2.29,0,0,0-3.237-.02,2.29,2.29,0,0,0-.02,3.237A2.288,2.288,0,0,0-321.52,238.207Z" fill="#f1f1f1"/>
              <path id="Path_11972" data-name="Path 11972" d="M-328.792,245.354a2.287,2.287,0,0,0,.02-3.236,2.288,2.288,0,0,0-3.236-.02,2.288,2.288,0,0,0-.02,3.236A2.288,2.288,0,0,0-328.792,245.354Z" fill="#f1f1f1"/>
              <path id="Path_11973" data-name="Path 11973" d="M-336.064,252.5a2.288,2.288,0,0,0,.02-3.236,2.288,2.288,0,0,0-3.236-.02,2.288,2.288,0,0,0-.02,3.236A2.288,2.288,0,0,0-336.064,252.5Z" fill="#f1f1f1"/>
              <path id="Path_11974" data-name="Path 11974" d="M-343.336,259.647a2.288,2.288,0,0,0,.02-3.236,2.288,2.288,0,0,0-3.236-.02,2.288,2.288,0,0,0-.021,3.236A2.29,2.29,0,0,0-343.336,259.647Z" fill="#f1f1f1"/>
              <path id="Path_11975" data-name="Path 11975" d="M-321.644,223.571a2.288,2.288,0,0,0,.02-3.236,2.288,2.288,0,0,0-3.236-.02,2.287,2.287,0,0,0-.02,3.236A2.288,2.288,0,0,0-321.644,223.571Z" fill="#f1f1f1"/>
              <path id="Path_11976" data-name="Path 11976" d="M-328.916,230.718a2.29,2.29,0,0,0,.02-3.237,2.287,2.287,0,0,0-3.236-.019,2.288,2.288,0,0,0-.021,3.236A2.29,2.29,0,0,0-328.916,230.718Z" fill="#f1f1f1"/>
              <path id="Path_11977" data-name="Path 11977" d="M-336.189,237.864a2.289,2.289,0,0,0,.021-3.236,2.29,2.29,0,0,0-3.237-.02,2.288,2.288,0,0,0-.02,3.236A2.287,2.287,0,0,0-336.189,237.864Z" fill="#f1f1f1"/>
              <path id="Path_11978" data-name="Path 11978" d="M-343.461,245.011a2.288,2.288,0,0,0,.02-3.236,2.289,2.289,0,0,0-3.236-.021,2.29,2.29,0,0,0-.02,3.237A2.288,2.288,0,0,0-343.461,245.011Z" fill="#f1f1f1"/>
              <path id="Path_11979" data-name="Path 11979" d="M-329.041,216.082a2.29,2.29,0,0,0,.02-3.237,2.288,2.288,0,0,0-3.236-.02,2.288,2.288,0,0,0-.02,3.236A2.288,2.288,0,0,0-329.041,216.082Z" fill="#f1f1f1"/>
              <circle id="Ellipse_862" data-name="Ellipse 862" cx="2.289" cy="2.289" r="2.289" transform="translate(-340.21 219.311)" fill="#f1f1f1"/>
              <path id="Path_11980" data-name="Path 11980" d="M-343.586,230.375a2.288,2.288,0,0,0,.021-3.236,2.288,2.288,0,0,0-3.237-.02,2.288,2.288,0,0,0-.02,3.236A2.288,2.288,0,0,0-343.586,230.375Z" fill="#f1f1f1"/>
              <path id="Path_11981" data-name="Path 11981" d="M-336.438,208.592a2.288,2.288,0,0,0,.02-3.236,2.288,2.288,0,0,0-3.236-.021,2.288,2.288,0,0,0-.02,3.237A2.288,2.288,0,0,0-336.438,208.592Z" fill="#f1f1f1"/>
              <path id="Path_11982" data-name="Path 11982" d="M-343.71,215.739a2.29,2.29,0,0,0,.02-3.237,2.288,2.288,0,0,0-3.236-.02,2.289,2.289,0,0,0-.021,3.237A2.29,2.29,0,0,0-343.71,215.739Z" fill="#f1f1f1"/>
              <path id="Path_11983" data-name="Path 11983" d="M-343.835,201.1a2.288,2.288,0,0,0,.02-3.236,2.288,2.288,0,0,0-3.236-.02,2.288,2.288,0,0,0-.02,3.236A2.288,2.288,0,0,0-343.835,201.1Z" fill="#f1f1f1"/>
            </g>
          </g>
        </g>
        <g id="Color-2" data-name="Color">
          <g id="Group_73199" data-name="Group 73199">
            <path id="Path_11984" data-name="Path 11984" d="M-348.892,209.722h-42.8a5.035,5.035,0,0,0-5.276,4.753v81.506a5.035,5.035,0,0,0,5.276,4.753h42.8a5.035,5.035,0,0,0,5.276-4.753V214.475A5.035,5.035,0,0,0-348.892,209.722Zm2.29,85.828a4.722,4.722,0,0,1-4.845,4.589h-39.31a4.722,4.722,0,0,1-4.845-4.589V216.855a4.723,4.723,0,0,1,4.845-4.59h39.31a4.723,4.723,0,0,1,4.845,4.59Z" fill="#fff"/>
            <path id="Path_11985" data-name="Path 11985" d="M-351.447,212.265h-39.31a4.723,4.723,0,0,0-4.845,4.59V295.55a4.722,4.722,0,0,0,4.845,4.589h39.31a4.722,4.722,0,0,0,4.845-4.589V216.855A4.723,4.723,0,0,0-351.447,212.265Zm.6,73.621a.971.971,0,0,1-.971.971h-38.007a.972.972,0,0,1-.972-.971v-67.1a.972.972,0,0,1,.972-.972h38.007a.972.972,0,0,1,.971.972Z" fill="#bbb7c0"/>
            <path id="Path_11986" data-name="Path 11986" d="M-351.816,217.813h-38.007a.972.972,0,0,0-.972.972v67.1a.972.972,0,0,0,.972.971h38.007a.971.971,0,0,0,.971-.971v-67.1A.972.972,0,0,0-351.816,217.813Zm-34.738,7.976a.8.8,0,0,1,.795-.795h29.794a.8.8,0,0,1,.795.795V235a.8.8,0,0,1-.795.795h-29.794a.8.8,0,0,1-.795-.795Zm31.384,50.984a.8.8,0,0,1-.795.795h-29.794a.8.8,0,0,1-.795-.795v-9.207a.8.8,0,0,1,.795-.8h29.794a.8.8,0,0,1,.795.8Zm0-13.861a.8.8,0,0,1-.795.8h-29.794a.8.8,0,0,1-.795-.8v-9.207a.8.8,0,0,1,.795-.795h29.794a.8.8,0,0,1,.795.795Zm1-14.015a2.291,2.291,0,0,1-2.287,2.288h-28.809a2.291,2.291,0,0,1-2.288-2.288v-8.222a2.29,2.29,0,0,1,2.288-2.287h28.809a2.29,2.29,0,0,1,2.287,2.287Z" fill="#fff"/>
            <rect id="Rectangle_146108" data-name="Rectangle 146108" width="31.384" height="10.797" rx="0.795" transform="translate(-386.554 224.994)" fill="#a9d0ee"/>
            <path id="Rectangle_146109" data-name="Rectangle 146109" d="M.287,0H29.1a.288.288,0,0,1,.288.288V8.51A.287.287,0,0,1,29.1,8.8H.287A.287.287,0,0,1,0,8.51V.287A.287.287,0,0,1,.287,0Z" transform="translate(-385.554 240.388)" fill="#cabedd"/>
            <path id="Path_11987" data-name="Path 11987" d="M-356.457,238.388h-28.809a2.29,2.29,0,0,0-2.288,2.287V248.9a2.291,2.291,0,0,0,2.288,2.288h28.809a2.291,2.291,0,0,0,2.287-2.288v-8.222A2.29,2.29,0,0,0-356.457,238.388Zm.287,10.509a.288.288,0,0,1-.287.288h-28.809a.288.288,0,0,1-.288-.288v-8.222a.288.288,0,0,1,.288-.287h28.809a.288.288,0,0,1,.287.287Z" fill="#4f4f4f"/>
            <rect id="Rectangle_146110" data-name="Rectangle 146110" width="31.384" height="10.797" rx="0.795" transform="translate(-386.554 252.91)" fill="#fac59c"/>
            <rect id="Rectangle_146111" data-name="Rectangle 146111" width="31.384" height="10.797" rx="0.795" transform="translate(-386.554 266.771)" fill="#c6d698"/>
          </g>
        </g>
        <g id="Icon-2" data-name="Icon">
          <g id="Group_73200" data-name="Group 73200">
            <path id="Path_11988" data-name="Path 11988" d="M-348.447,301.642h-42.8a6.537,6.537,0,0,1-6.776-6.253V213.883a6.538,6.538,0,0,1,6.776-6.254h42.8a6.539,6.539,0,0,1,6.776,6.254v81.506A6.538,6.538,0,0,1-348.447,301.642Zm-42.8-91.013a3.549,3.549,0,0,0-3.776,3.254v81.506a3.548,3.548,0,0,0,3.776,3.253h42.8a3.548,3.548,0,0,0,3.776-3.253V213.883a3.549,3.549,0,0,0-3.776-3.254Z" fill="#4f4f4f"/>
          </g>
        </g>
      </g>
    </g>
  </g>
</svg>
